<svg xmlns="http://www.w3.org/2000/svg" xmlns:xlink="http://www.w3.org/1999/xlink" width="500" zoomAndPan="magnify" viewBox="0 0 375 74.999997" height="100" preserveAspectRatio="xMidYMid meet" version="1.0"><defs><g/><clipPath id="18ab7db564"><rect x="0" width="358" y="0" height="48"/></clipPath></defs><g transform="matrix(1, 0, 0, 1, 7, 12)"><g clip-path="url(#18ab7db564)"><g fill="#ffffff" fill-opacity="1"><g transform="translate(0.500007, 41.117781)"><g><path d="M 5.78125 0 L 5.78125 -33.5625 L 18.28125 -33.5625 C 20.71875 -33.5625 22.972656 -32.945312 25.046875 -31.71875 C 27.117188 -30.5 28.765625 -28.851562 29.984375 -26.78125 C 31.210938 -24.707031 31.828125 -22.453125 31.828125 -20.015625 L 31.828125 -13.546875 C 31.828125 -11.109375 31.210938 -8.851562 29.984375 -6.78125 C 28.765625 -4.707031 27.117188 -3.054688 25.046875 -1.828125 C 22.972656 -0.609375 20.71875 0 18.28125 0 Z M 5.78125 0 "/></g></g></g><g fill="#ffffff" fill-opacity="1"><g transform="translate(36.179966, 41.117781)"><g><path d="M 5.78125 -33.5625 L 30.234375 -33.5625 L 30.234375 -25.078125 L 14.5625 -25.078125 L 14.5625 -20.828125 L 27.578125 -20.828125 L 27.578125 -12.78125 L 14.5625 -12.78125 L 14.5625 -8.484375 L 30.234375 -8.484375 L 30.234375 0 L 5.78125 0 Z M 5.78125 -33.5625 "/></g></g></g><g fill="#ffffff" fill-opacity="1"><g transform="translate(71.859925, 41.117781)"><g><path d="M 18.078125 0.875 C 13.421875 0.875 9.828125 -0.222656 7.296875 -2.421875 C 4.773438 -4.628906 3.53125 -7.9375 3.5625 -12.34375 L 11.421875 -12.34375 C 11.390625 -10.507812 11.9375 -9.109375 13.0625 -8.140625 C 14.1875 -7.179688 15.765625 -6.703125 17.796875 -6.703125 C 19.460938 -6.703125 20.773438 -6.972656 21.734375 -7.515625 C 22.703125 -8.066406 23.1875 -8.90625 23.1875 -10.03125 C 23.1875 -10.957031 22.695312 -11.628906 21.71875 -12.046875 C 20.738281 -12.472656 19.765625 -12.773438 18.796875 -12.953125 C 17.835938 -13.128906 17.242188 -13.234375 17.015625 -13.265625 C 14.546875 -13.742188 12.410156 -14.328125 10.609375 -15.015625 C 8.804688 -15.710938 7.296875 -16.765625 6.078125 -18.171875 C 4.859375 -19.585938 4.25 -21.453125 4.25 -23.765625 C 4.25 -26.085938 4.859375 -28.054688 6.078125 -29.671875 C 7.296875 -31.296875 8.925781 -32.507812 10.96875 -33.3125 C 13.007812 -34.125 15.234375 -34.53125 17.640625 -34.53125 C 20.566406 -34.53125 23.097656 -33.984375 25.234375 -32.890625 C 27.378906 -31.796875 29.0625 -30.140625 30.28125 -27.921875 C 30.894531 -26.859375 31.265625 -25.835938 31.390625 -24.859375 C 31.515625 -23.878906 31.578125 -22.921875 31.578125 -21.984375 L 23.71875 -21.984375 C 23.71875 -23.722656 23.25 -25 22.3125 -25.8125 C 21.382812 -26.632812 19.941406 -27.046875 17.984375 -27.046875 C 16.410156 -27.046875 15.1875 -26.769531 14.3125 -26.21875 C 13.445312 -25.675781 13.015625 -24.941406 13.015625 -24.015625 C 13.015625 -22.984375 13.59375 -22.222656 14.75 -21.734375 C 15.90625 -21.253906 17.367188 -20.820312 19.140625 -20.4375 C 22.035156 -19.863281 24.296875 -19.3125 25.921875 -18.78125 C 27.546875 -18.25 28.953125 -17.304688 30.140625 -15.953125 C 31.328125 -14.609375 31.921875 -12.710938 31.921875 -10.265625 C 31.921875 -7.953125 31.273438 -5.957031 29.984375 -4.28125 C 28.703125 -2.613281 27.007812 -1.335938 24.90625 -0.453125 C 22.800781 0.429688 20.523438 0.875 18.078125 0.875 Z M 18.078125 0.875 "/></g></g></g><g fill="#ffffff" fill-opacity="1"><g transform="translate(107.539884, 41.117781)"><g><path d="M 18.328125 -19.578125 L 32.3125 0 L 5.296875 0 L 5.296875 -33.5625 L 32.3125 -33.5625 Z M 17.0625 -18.328125 L 7.09375 -8.34375 L 7.09375 -1.78125 L 28.890625 -1.78125 Z M 17.0625 -18.328125 "/></g></g></g><g fill="#ffffff" fill-opacity="1"><g transform="translate(143.219843, 41.117781)"><g><path d="M 22.1875 -25.078125 L 12.734375 -25.078125 L 12.734375 -33.5625 L 30.953125 -33.5625 L 30.953125 -13.640625 C 30.953125 -10.648438 30.359375 -8.070312 29.171875 -5.90625 C 27.984375 -3.738281 26.351562 -2.09375 24.28125 -0.96875 C 22.207031 0.15625 19.898438 0.71875 17.359375 0.71875 C 14.910156 0.71875 12.648438 0.109375 10.578125 -1.109375 C 8.503906 -2.328125 6.859375 -3.972656 5.640625 -6.046875 C 4.421875 -8.117188 3.8125 -10.378906 3.8125 -12.828125 L 12.578125 -12.828125 C 12.578125 -11.347656 13.003906 -10.109375 13.859375 -9.109375 C 14.710938 -8.117188 15.863281 -7.625 17.3125 -7.625 C 18.851562 -7.625 20.050781 -8.113281 20.90625 -9.09375 C 21.757812 -10.070312 22.1875 -11.507812 22.1875 -13.40625 Z M 22.1875 -25.078125 "/></g></g></g><g fill="#ffffff" fill-opacity="1"><g transform="translate(178.899802, 41.117781)"><g><path d="M 33.65625 0 L 2.03125 0 L 17.84375 -34.28125 Z M 4.828125 -1.78125 L 30.859375 -1.78125 L 17.84375 -30.046875 Z M 4.828125 -1.78125 "/></g></g></g><g fill="#ffffff" fill-opacity="1"><g transform="translate(214.579762, 41.117781)"><g><path d="M 31.734375 0 L 5.9375 0 L 5.9375 -33.5625 L 19 -33.5625 C 21.789062 -33.5625 24.070312 -33.0625 25.84375 -32.0625 C 27.582031 -31.101562 28.929688 -29.785156 29.890625 -28.109375 C 30.859375 -26.441406 31.34375 -24.59375 31.34375 -22.5625 C 31.34375 -20.0625 30.570312 -17.820312 29.03125 -15.84375 C 27.488281 -13.863281 25.539062 -12.550781 23.1875 -11.90625 Z M 8.96875 -31.78125 L 22.078125 -13.453125 C 24.234375 -13.898438 26.019531 -14.972656 27.4375 -16.671875 C 28.851562 -18.378906 29.5625 -20.34375 29.5625 -22.5625 C 29.5625 -24.332031 29.125 -25.941406 28.25 -27.390625 C 27.382812 -28.835938 26.164062 -29.945312 24.59375 -30.71875 C 23.175781 -31.425781 21.328125 -31.78125 19.046875 -31.78125 Z M 7.71875 -30.625 L 7.71875 -13.3125 L 20.109375 -13.3125 Z M 7.71875 -1.78125 L 28.359375 -1.78125 L 21.3125 -11.578125 L 19.8125 -11.53125 L 7.71875 -11.53125 Z M 7.71875 -1.78125 "/></g></g></g><g fill="#ffffff" fill-opacity="1"><g transform="translate(250.259721, 41.117781)"><g><path d="M 2.03125 -33.609375 L 33.65625 -33.609375 L 17.84375 0.671875 Z M 17.84375 -3.5625 L 30.90625 -31.828125 L 4.828125 -31.828125 Z M 17.84375 -3.5625 "/></g></g></g><g fill="#ffffff" fill-opacity="1"><g transform="translate(285.93968, 41.117781)"><g><path d="M 6.984375 -25.078125 L 6.984375 -33.5625 L 28.6875 -33.5625 L 28.6875 -25.078125 L 18.703125 -25.078125 L 18.703125 -8.484375 L 28.6875 -8.484375 L 28.6875 0 L 6.984375 0 L 6.984375 -8.484375 L 16.96875 -8.484375 L 16.96875 -25.078125 Z M 6.984375 -25.078125 "/></g></g></g><g fill="#ffffff" fill-opacity="1"><g transform="translate(321.619639, 41.117781)"><g><path d="M 18.078125 0.875 C 13.421875 0.875 9.828125 -0.222656 7.296875 -2.421875 C 4.773438 -4.628906 3.53125 -7.9375 3.5625 -12.34375 L 11.421875 -12.34375 C 11.390625 -10.507812 11.9375 -9.109375 13.0625 -8.140625 C 14.1875 -7.179688 15.765625 -6.703125 17.796875 -6.703125 C 19.460938 -6.703125 20.773438 -6.972656 21.734375 -7.515625 C 22.703125 -8.066406 23.1875 -8.90625 23.1875 -10.03125 C 23.1875 -10.957031 22.695312 -11.628906 21.71875 -12.046875 C 20.738281 -12.472656 19.765625 -12.773438 18.796875 -12.953125 C 17.835938 -13.128906 17.242188 -13.234375 17.015625 -13.265625 C 14.546875 -13.742188 12.410156 -14.328125 10.609375 -15.015625 C 8.804688 -15.710938 7.296875 -16.765625 6.078125 -18.171875 C 4.859375 -19.585938 4.25 -21.453125 4.25 -23.765625 C 4.25 -26.085938 4.859375 -28.054688 6.078125 -29.671875 C 7.296875 -31.296875 8.925781 -32.507812 10.96875 -33.3125 C 13.007812 -34.125 15.234375 -34.53125 17.640625 -34.53125 C 20.566406 -34.53125 23.097656 -33.984375 25.234375 -32.890625 C 27.378906 -31.796875 29.0625 -30.140625 30.28125 -27.921875 C 30.894531 -26.859375 31.265625 -25.835938 31.390625 -24.859375 C 31.515625 -23.878906 31.578125 -22.921875 31.578125 -21.984375 L 23.71875 -21.984375 C 23.71875 -23.722656 23.25 -25 22.3125 -25.8125 C 21.382812 -26.632812 19.941406 -27.046875 17.984375 -27.046875 C 16.410156 -27.046875 15.1875 -26.769531 14.3125 -26.21875 C 13.445312 -25.675781 13.015625 -24.941406 13.015625 -24.015625 C 13.015625 -22.984375 13.59375 -22.222656 14.75 -21.734375 C 15.90625 -21.253906 17.367188 -20.820312 19.140625 -20.4375 C 22.035156 -19.863281 24.296875 -19.3125 25.921875 -18.78125 C 27.546875 -18.25 28.953125 -17.304688 30.140625 -15.953125 C 31.328125 -14.609375 31.921875 -12.710938 31.921875 -10.265625 C 31.921875 -7.953125 31.273438 -5.957031 29.984375 -4.28125 C 28.703125 -2.613281 27.007812 -1.335938 24.90625 -0.453125 C 22.800781 0.429688 20.523438 0.875 18.078125 0.875 Z M 18.078125 0.875 "/></g></g></g></g></g></svg>